<svg xmlns="http://www.w3.org/2000/svg" width="53.939" height="53.939" viewBox="0 0 53.939 53.939"><path d="M41.381,2.293H18.145A15.369,15.369,0,0,0,2.793,17.644V40.881A15.369,15.369,0,0,0,18.145,56.232H41.381A15.369,15.369,0,0,0,56.732,40.881V17.644A15.369,15.369,0,0,0,41.381,2.293ZM52.109,40.881A10.741,10.741,0,0,1,41.381,51.61H18.145A10.742,10.742,0,0,1,7.416,40.881V17.644A10.74,10.74,0,0,1,18.145,6.916H41.381A10.74,10.74,0,0,1,52.109,17.644Z" transform="translate(-2.793 -2.293)" fill="#1ed760"/><path d="M47.291,29A1.342,1.342,0,0,1,48.7,27.492h3.555V22.054H47.345c-5.44,0-6.66,4.032-6.66,6.632V31.55H37.529v6.341h3.184V53.729h6.341V37.891h4.7L51.96,35.4l.372-3.847h-5.04V29Z" transform="translate(-17.96 -10.922)" fill="#1ed760"/></svg>