<svg id="Group_1548" data-name="Group 1548" xmlns="http://www.w3.org/2000/svg" width="80.77" height="72.011" viewBox="0 0 80.77 72.011">
  <path id="Path_7874" data-name="Path 7874" d="M35.9-214.073a15.153,15.153,0,0,1-6.125-5.451,14.421,14.421,0,0,1-2.211-7.9,14.43,14.43,0,0,1,2.211-7.907,14.957,14.957,0,0,1,6.125-5.422,19.563,19.563,0,0,1,8.824-1.944,19.686,19.686,0,0,1,8.876,1.944,14.771,14.771,0,0,1,6.1,5.422,14.552,14.552,0,0,1,2.186,7.907,14.543,14.543,0,0,1-2.186,7.9,14.964,14.964,0,0,1-6.1,5.451,19.471,19.471,0,0,1-8.876,1.97A19.349,19.349,0,0,1,35.9-214.073Zm12.276-9.066a6.282,6.282,0,0,0,1.35-4.289,6.179,6.179,0,0,0-1.35-4.264,4.423,4.423,0,0,0-3.452-1.511,4.427,4.427,0,0,0-3.454,1.511,6.178,6.178,0,0,0-1.349,4.264,6.281,6.281,0,0,0,1.349,4.289,4.385,4.385,0,0,0,3.454,1.539A4.381,4.381,0,0,0,48.175-223.14Z" transform="translate(-4.338 263.408)" fill="#fff"/>
  <path id="Path_7875" data-name="Path 7875" d="M64.567-247.669a26.345,26.345,0,0,0-10.874-9.672,35.116,35.116,0,0,0-15.832-3.467,34.9,34.9,0,0,0-15.738,3.467A26.68,26.68,0,0,0,11.2-247.669a25.733,25.733,0,0,0-3.944,14.1,25.725,25.725,0,0,0,3.944,14.1,27.038,27.038,0,0,0,10.924,9.722,34.518,34.518,0,0,0,15.738,3.513,34.734,34.734,0,0,0,15.832-3.513,26.7,26.7,0,0,0,10.874-9.722,25.946,25.946,0,0,0,3.9-14.1A25.954,25.954,0,0,0,64.567-247.669Zm-6.073,25.005a20.619,20.619,0,0,1-8.4,7.51,26.837,26.837,0,0,1-12.232,2.715A26.666,26.666,0,0,1,25.7-215.153a20.878,20.878,0,0,1-8.44-7.51,19.872,19.872,0,0,1-3.047-10.892,19.883,19.883,0,0,1,3.047-10.9,20.6,20.6,0,0,1,8.44-7.471A26.952,26.952,0,0,1,37.861-254.6a27.126,27.126,0,0,1,12.232,2.679,20.348,20.348,0,0,1,8.4,7.471,20.055,20.055,0,0,1,3.013,10.9A20.044,20.044,0,0,1,58.494-222.663Z" transform="translate(2.524 269.526)" fill="#1ed760"/>
  <path id="Path_7876" data-name="Path 7876" d="M68.11-256.639A34.758,34.758,0,0,0,53.761-269.4a46.329,46.329,0,0,0-20.89-4.574A46.035,46.035,0,0,0,12.1-269.4,35.2,35.2,0,0,0-2.31-256.639a33.953,33.953,0,0,0-5.2,18.608,33.938,33.938,0,0,0,5.2,18.6A35.665,35.665,0,0,0,12.1-206.6a45.543,45.543,0,0,0,20.766,4.636,45.833,45.833,0,0,0,20.89-4.636A35.219,35.219,0,0,0,68.11-219.428a34.238,34.238,0,0,0,5.146-18.6A34.253,34.253,0,0,0,68.11-256.639Zm-1.725,36.3a33.484,33.484,0,0,1-13.646,12.2,43.586,43.586,0,0,1-19.868,4.41,43.311,43.311,0,0,1-19.75-4.41,33.91,33.91,0,0,1-13.71-12.2,32.279,32.279,0,0,1-4.949-17.693,32.293,32.293,0,0,1,4.949-17.7,33.475,33.475,0,0,1,13.71-12.137,43.787,43.787,0,0,1,19.75-4.351,44.066,44.066,0,0,1,19.868,4.351,33.058,33.058,0,0,1,13.646,12.137,32.573,32.573,0,0,1,4.894,17.7A32.558,32.558,0,0,1,66.385-220.335Z" transform="translate(7.514 273.975)" fill="#1ed760"/>
</svg>
