<svg id="Insta-W" xmlns="http://www.w3.org/2000/svg" width="53.94" height="53.939" viewBox="0 0 53.94 53.939">
  <g id="Group_1" data-name="Group 1" transform="translate(0 0)">
    <path id="Path_7" data-name="Path 7" d="M42,56.091H18.765A15.369,15.369,0,0,1,3.413,40.74V17.5A15.369,15.369,0,0,1,18.765,2.152H42A15.37,15.37,0,0,1,57.353,17.5V40.74A15.37,15.37,0,0,1,42,56.091ZM18.765,6.775A10.74,10.74,0,0,0,8.036,17.5V40.74A10.741,10.741,0,0,0,18.765,51.468H42A10.741,10.741,0,0,0,52.729,40.74V17.5A10.74,10.74,0,0,0,42,6.775H18.765Z" transform="translate(-3.413 -2.152)"/>
  </g>
  <g id="Group_2" data-name="Group 2" transform="translate(13.159 13.158)">
    <path id="Path_8" data-name="Path 8" d="M40.583,53.132A13.811,13.811,0,1,1,54.394,39.32,13.827,13.827,0,0,1,40.583,53.132Zm0-23a9.188,9.188,0,1,0,9.188,9.188A9.2,9.2,0,0,0,40.583,30.133Z" transform="translate(-26.771 -25.509)"/>
  </g>
  <g id="Group_3" data-name="Group 3" transform="translate(38.053 9.049)">
    <ellipse id="Ellipse_2" data-name="Ellipse 2" cx="3.32" cy="3.32" rx="3.32" ry="3.32"/>
  </g>
</svg>
