<svg id="LinkedIn-W" xmlns="http://www.w3.org/2000/svg" width="53.94" height="53.939" viewBox="0 0 53.94 53.939">
  <path id="Path_9" data-name="Path 9" d="M41.38,2.293H18.144A15.369,15.369,0,0,0,2.792,17.644V40.881A15.369,15.369,0,0,0,18.144,56.232H41.379A15.37,15.37,0,0,0,56.732,40.881V17.644A15.369,15.369,0,0,0,41.38,2.293ZM52.108,40.881A10.742,10.742,0,0,1,41.379,51.61H18.144A10.741,10.741,0,0,1,7.416,40.881V17.644A10.74,10.74,0,0,1,18.144,6.916H41.379A10.74,10.74,0,0,1,52.108,17.644Z" transform="translate(-2.792 -2.293)"/>
  <path id="Path_10" data-name="Path 10" d="M26.767,46.965V60.148h6.277V42.191H26.767Z" transform="translate(-13.261 -19.714)"/>
  <path id="Path_11" data-name="Path 11" d="M29.906,26.268a3.139,3.139,0,1,0,3.138,3.138A3.137,3.137,0,0,0,29.906,26.268Z" transform="translate(-13.261 -12.762)"/>
  <path id="Path_12" data-name="Path 12" d="M54.632,42.191c-2.692,0-4.511.991-5.27,2.429H49.28V42.191H44.273V60.148H49.51v-8.9c0-2.347.462-4.61,3.338-4.61s3.105,2.676,3.105,4.774v8.74H61.34V50.287a20.8,20.8,0,0,0-.149-2.577C60.776,44.305,59.225,42.191,54.632,42.191Z" transform="translate(-20.905 -19.714)"/>
</svg>
