<svg xmlns="http://www.w3.org/2000/svg" width="47.783" height="42.602" viewBox="0 0 47.783 42.602">
  <defs>
    <style>
      .cls-1 {
        fill: #fff;
      }

      .cls-2 {
        fill: #1ed760;
      }
    </style>
  </defs>
  <g id="Group_1543" data-name="Group 1543" transform="translate(7.514 273.975)">
    <path id="Path_7874" data-name="Path 7874" class="cls-1" d="M32.495-225.765a8.964,8.964,0,0,1-3.623-3.225,8.531,8.531,0,0,1-1.308-4.676,8.537,8.537,0,0,1,1.308-4.678,8.848,8.848,0,0,1,3.623-3.208,11.573,11.573,0,0,1,5.22-1.15,11.646,11.646,0,0,1,5.251,1.15,8.739,8.739,0,0,1,3.607,3.208,8.609,8.609,0,0,1,1.293,4.678,8.6,8.6,0,0,1-1.293,4.676,8.853,8.853,0,0,1-3.607,3.225,11.519,11.519,0,0,1-5.251,1.166A11.447,11.447,0,0,1,32.495-225.765Zm7.263-5.364a3.716,3.716,0,0,0,.8-2.537,3.655,3.655,0,0,0-.8-2.523,2.616,2.616,0,0,0-2.042-.894,2.619,2.619,0,0,0-2.044.894,3.655,3.655,0,0,0-.8,2.523,3.716,3.716,0,0,0,.8,2.537,2.594,2.594,0,0,0,2.044.91A2.592,2.592,0,0,0,39.757-231.129Z" transform="translate(-21.337 -19.024)"/>
    <path id="Path_7875" data-name="Path 7875" class="cls-2" d="M41.16-253.034a15.586,15.586,0,0,0-6.433-5.722,20.774,20.774,0,0,0-9.366-2.051,20.645,20.645,0,0,0-9.311,2.051,15.784,15.784,0,0,0-6.463,5.722,15.223,15.223,0,0,0-2.333,8.342,15.219,15.219,0,0,0,2.333,8.341,16,16,0,0,0,6.463,5.751,20.421,20.421,0,0,0,9.311,2.078,20.548,20.548,0,0,0,9.366-2.078,15.793,15.793,0,0,0,6.433-5.751,15.35,15.35,0,0,0,2.308-8.341A15.354,15.354,0,0,0,41.16-253.034Zm-3.593,14.793A12.2,12.2,0,0,1,32.6-233.8a15.877,15.877,0,0,1-7.236,1.606,15.775,15.775,0,0,1-7.193-1.606,12.352,12.352,0,0,1-4.993-4.443,11.756,11.756,0,0,1-1.8-6.444,11.763,11.763,0,0,1,1.8-6.446,12.188,12.188,0,0,1,4.993-4.42,15.945,15.945,0,0,1,7.193-1.585,16.048,16.048,0,0,1,7.236,1.585,12.038,12.038,0,0,1,4.97,4.42,11.865,11.865,0,0,1,1.783,6.446A11.858,11.858,0,0,1,37.568-238.241Z" transform="translate(-8.984 -8.01)"/>
    <path id="Path_7876" data-name="Path 7876" class="cls-2" d="M37.225-263.719a20.563,20.563,0,0,0-8.489-7.55,27.408,27.408,0,0,0-12.359-2.706,27.234,27.234,0,0,0-12.285,2.706,20.822,20.822,0,0,0-8.528,7.55,20.086,20.086,0,0,0-3.078,11.008,20.078,20.078,0,0,0,3.078,11.006,21.1,21.1,0,0,0,8.528,7.589,26.943,26.943,0,0,0,12.285,2.743,27.115,27.115,0,0,0,12.359-2.743,20.835,20.835,0,0,0,8.489-7.589,20.255,20.255,0,0,0,3.044-11.006A20.264,20.264,0,0,0,37.225-263.719ZM36.2-242.242a19.809,19.809,0,0,1-8.073,7.217,25.785,25.785,0,0,1-11.754,2.609,25.623,25.623,0,0,1-11.684-2.609,20.061,20.061,0,0,1-8.111-7.217,19.1,19.1,0,0,1-2.928-10.467,19.1,19.1,0,0,1,2.928-10.469,19.8,19.8,0,0,1,8.111-7.18,25.9,25.9,0,0,1,11.684-2.574,26.069,26.069,0,0,1,11.754,2.574,19.557,19.557,0,0,1,8.073,7.18,19.27,19.27,0,0,1,2.9,10.469A19.261,19.261,0,0,1,36.2-242.242Z" transform="translate(0 0)"/>
  </g>
</svg>
