<svg xmlns="http://www.w3.org/2000/svg" width="84.282" height="20.948" viewBox="0 0 84.282 20.948"><g transform="translate(-113.419 -220.123)"><path d="M117.25,234.519a6.939,6.939,0,0,1-2.814-2.5,6.992,6.992,0,0,1,0-7.263,6.861,6.861,0,0,1,2.814-2.491,9.7,9.7,0,0,1,8.13,0,6.782,6.782,0,0,1,2.8,2.491,7.066,7.066,0,0,1,0,7.263,6.859,6.859,0,0,1-2.8,2.5,9.577,9.577,0,0,1-8.13,0Zm5.638-4.166a2.876,2.876,0,0,0,.62-1.969,2.837,2.837,0,0,0-.62-1.96,2.161,2.161,0,0,0-3.172,0,2.837,2.837,0,0,0-.62,1.96,2.876,2.876,0,0,0,.62,1.969,2.132,2.132,0,0,0,3.172,0Z" transform="translate(0 0.961)" fill="#1ed760"/><path d="M137.085,221.634v13.337h-3.67v-1.588a5.126,5.126,0,0,1-1.834,1.327,5.781,5.781,0,0,1-2.305.457,5.679,5.679,0,0,1-4.164-1.511,6.027,6.027,0,0,1-1.536-4.487v-7.536h3.866V228.6q0,3.224,2.7,3.223a2.907,2.907,0,0,0,2.231-.9,3.824,3.824,0,0,0,.843-2.692v-6.593Z" transform="translate(7.84 1.166)" fill="#1ed760"/><path d="M141.7,235.369a3.557,3.557,0,0,1-1.288.682,5.429,5.429,0,0,1-1.586.236,4.212,4.212,0,0,1-3.074-1.067,4.068,4.068,0,0,1-1.092-3.049v-7.214h-2.231V223h2.231v-2.876h2.38V223h3.769v1.958h-3.769v7.114a2.306,2.306,0,0,0,.533,1.637,1.985,1.985,0,0,0,1.524.569,2.877,2.877,0,0,0,1.861-.618Z" transform="translate(14.676 0)" fill="#1ed760"/><path d="M152.042,221.845V233.3a6.635,6.635,0,0,1-1.623,4.921,6.714,6.714,0,0,1-4.9,1.6,10.971,10.971,0,0,1-3.434-.533,7.089,7.089,0,0,1-2.64-1.474l.893-1.34a6.692,6.692,0,0,0,2.293,1.313,8.52,8.52,0,0,0,2.839.471,5.017,5.017,0,0,0,3.645-1.152,4.858,4.858,0,0,0,1.164-3.583v-1.66a5.3,5.3,0,0,1-2.144,1.884,6.621,6.621,0,0,1-2.938.645,6.941,6.941,0,0,1-3.335-.806,5.948,5.948,0,0,1-2.355-2.256,6.338,6.338,0,0,1-.854-3.285,6.269,6.269,0,0,1,.854-3.271,5.912,5.912,0,0,1,2.342-2.231,7.01,7.01,0,0,1,3.347-.794,6.613,6.613,0,0,1,3,.67,5.4,5.4,0,0,1,2.156,1.933v-2.5Zm-4.114,10.375a4.39,4.39,0,0,0,1.772-1.7,4.845,4.845,0,0,0,.633-2.479,4.775,4.775,0,0,0-.633-2.465,4.442,4.442,0,0,0-1.76-1.687,5.72,5.72,0,0,0-5.107-.012,4.311,4.311,0,0,0-1.76,1.685,5.174,5.174,0,0,0,0,4.958,4.391,4.391,0,0,0,1.76,1.7,5.285,5.285,0,0,0,2.541.608A5.36,5.36,0,0,0,147.928,232.22Z" transform="translate(19.482 1.253)" fill="#1ed760"/><path d="M152.141,222.559a5.88,5.88,0,0,1,3.074-.757v1.214l-.3-.023a4.3,4.3,0,0,0-3.37,1.35,5.42,5.42,0,0,0-1.216,3.755v6.744h-1.239V221.9h1.189v2.826A4.477,4.477,0,0,1,152.141,222.559Z" transform="translate(27.538 1.296)" fill="#1ed760"/><path d="M156.936,234.053a5.9,5.9,0,0,1-2.268-2.318,7.351,7.351,0,0,1,0-6.742,5.872,5.872,0,0,1,2.268-2.318,6.735,6.735,0,0,1,6.482,0,5.9,5.9,0,0,1,2.256,2.318,7.351,7.351,0,0,1,0,6.742,5.924,5.924,0,0,1-2.256,2.318,6.735,6.735,0,0,1-6.482,0Zm6.048-.645a5.227,5.227,0,0,0,1.972-2.045,6.151,6.151,0,0,0,.718-3,6.088,6.088,0,0,0-.718-2.987,5.266,5.266,0,0,0-1.972-2.032,5.784,5.784,0,0,0-5.626,0,5.254,5.254,0,0,0-1.972,2.032,6.088,6.088,0,0,0-.718,2.987,6.151,6.151,0,0,0,.718,3,5.215,5.215,0,0,0,1.972,2.045,5.772,5.772,0,0,0,5.626,0Z" transform="translate(31.209 1.328)" fill="#1ed760"/></g></svg>